<svg width="512" height="512">

<path style="fill:#5833ff; stroke:none;" d="M248 8.52933C238.853 10.6404 231.961 18.2353 229.221 27C226.702 35.0563 228 44.6509 228 53C228 75.8076 222.239 126.586 261 118.331C269.8 116.457 277.711 111.444 281.471 103C285.76 93.3661 284 81.2773 284 71C284 50.0283 290.553 8.84045 259 8.01465C255.398 7.92038 251.532 7.71426 248 8.52933M95 72.4645C77.0207 75.7061 67.8949 94.3458 74.0941 111C77.1128 119.11 85.0409 125.041 91 131C105.369 145.369 121.775 170.914 145 166.532C161.934 163.338 171.12 144.855 165.451 129C162.519 120.797 154.983 114.983 149 109C134.95 94.9496 117.787 68.356 95 72.4645M407 72.4645C388.776 75.7491 373.507 98.4928 361 111C355.308 116.692 348.706 122.06 346.221 130C339.744 150.69 356.912 169.814 378 166.699C396.137 164.02 412.693 139.308 425 127C430.385 121.615 436.255 116.505 438.557 109C444.711 88.9362 428.17 68.649 407 72.4645M240"></path>
  
<circle stroke-width="57" fill="transparent" stroke="#5833ff" r="96" cy="256" cx="256"></circle>

<path style="fill:#5833ff; stroke:none;" d="M30 228.468C6.95316 232.815 -0.938704 265.484 19.0039 278.895C33.3516 288.544 57.4516 284 74 284C81.4867 284 89.6461 284.902 97 283.331C120.747 278.257 126.567 245.182 106 232.133C98.4582 227.349 89.5322 228 81 228C64.7127 228 46.0078 225.448 30 228.468M416 228.465C392.055 232.783 385.051 265.193 405.001 279.2C412.182 284.242 420.633 284 429 284C445.971 284 466.449 287.119 483 283.319C506.004 278.039 512.49 245.156 491.999 232.468C483.333 227.102 473.765 228 464 228C448.596 228 431.164 225.729 416 228.465M133 345.468C115.332 348.801 99.1773 372.823 87 385C81.5477 390.452 75.7214 395.385 73.4398 403C67.437 423.033 83.7875 443.359 105 439.535C123.224 436.251 138.493 413.507 151 401C156.692 395.308 163.294 389.94 165.779 382C172.356 360.99 154.396 341.431 133 345.468M367 345.468C350.066 348.662 340.88 367.145 346.549 383C349.481 391.203 357.017 397.017 363 403C376.912 416.912 394.366 443.773 417 439.532C435.278 436.108 444.592 416.812 437.521 400C434.177 392.049 425.974 385.974 420 380C405.81 365.81 389.923 341.143 367 345.468M252 393.44C242.78 394.909 234.471 400.367 230.519 409C226.026 418.812 228 431.469 228 442C228 462.315 221.643 502.473 252 503.96C255.57 504.135 259.47 504.291 263 503.671C272.596 501.986 279.952 494.043 282.779 485C285.298 476.944 284 467.349 284 459C284 435.871 290.139 387.36 252 393.44z"></path>
</svg>
